M48
; DRILL file {KiCad (5.1.10)-1} date 07/20/21 07:44:32
; FORMAT={-:-/ absolute / inch / decimal}
; #@! TF.CreationDate,2021-07-20T07:44:32+09:00
; #@! TF.GenerationSoftware,Kicad,Pcbnew,(5.1.10)-1
FMAT,2
INCH
T1C0.0315
T2C0.0354
T3C0.0394
T4C0.1260
%
G90
G05
T1
X3.925Y-2.375
X3.925Y-2.5
X3.925Y-3.8
X4.0016Y-4.45
X4.05Y-4.1
X4.05Y-4.225
X4.1Y-4.45
X4.3016Y-4.45
X4.325Y-2.375
X4.325Y-2.5
X4.325Y-3.8
X4.4Y-4.45
X4.45Y-4.1
X4.45Y-4.225
X4.5Y-2.8
X4.5Y-2.8984
X4.5Y-3.1
X4.5Y-3.1984
X4.5Y-3.4
X4.5Y-3.4984
X4.5531Y-4.825
X4.6Y-4.1
X4.6Y-4.2
X4.6Y-4.3
X4.6Y-4.4
X4.6Y-4.525
X4.6984Y-4.525
X4.75Y-4.825
X4.8Y-3.975
X4.85Y-3.1
X4.85Y-3.5
X4.875Y-2.7016
X4.875Y-2.8
X4.8766Y-3.6
X4.8766Y-3.7
X4.8984Y-3.975
X4.9Y-4.1
X4.9Y-4.2
X4.9Y-4.3
X4.9Y-4.4
X4.975Y-3.0
X4.975Y-3.1969
X4.975Y-3.6
X4.975Y-3.7
X5.025Y-4.075
X5.025Y-4.2
X5.025Y-4.325
X5.025Y-4.45
X5.1Y-3.0
X5.1Y-3.1
X5.1Y-3.2
X5.1Y-3.3
X5.1Y-3.4
X5.1Y-3.5
X5.1Y-3.6
X5.1Y-3.7
X5.1031Y-4.825
X5.3Y-4.825
X5.4Y-3.0
X5.4Y-3.1
X5.4Y-3.2
X5.4Y-3.3
X5.4Y-3.4
X5.4Y-3.5
X5.4Y-3.6
X5.4Y-3.7
X5.425Y-4.075
X5.425Y-4.2
X5.425Y-4.325
X5.425Y-4.45
X5.5766Y-2.8
X5.5781Y-3.1
X5.5781Y-3.3
X5.5781Y-3.5
X5.5781Y-3.7
X5.675Y-2.8
X5.675Y-4.075
X5.675Y-4.2
X5.675Y-4.325
X5.675Y-4.45
X5.775Y-3.1
X5.775Y-3.3
X5.775Y-3.5
X5.775Y-3.7
X5.825Y-4.85
X5.825Y-5.25
X5.95Y-2.8
X5.95Y-2.925
X5.95Y-3.05
X5.95Y-3.175
X5.95Y-3.3
X5.95Y-3.425
X5.95Y-3.55
X6.075Y-4.075
X6.075Y-4.2
X6.075Y-4.325
X6.075Y-4.45
X6.075Y-4.75
X6.075Y-4.8484
X6.2Y-4.125
X6.2Y-4.225
X6.2Y-4.325
X6.2Y-4.425
X6.2Y-4.55
X6.2984Y-4.55
X6.35Y-2.8
X6.35Y-2.925
X6.35Y-3.05
X6.35Y-3.175
X6.35Y-3.3
X6.35Y-3.425
X6.35Y-3.55
X6.4Y-4.0
X6.45Y-2.8
X6.4984Y-4.0
X6.5Y-4.125
X6.5Y-4.225
X6.5Y-4.325
X6.5Y-4.425
X6.525Y-3.25
X6.525Y-3.55
X6.5281Y-3.075
X6.625Y-4.075
X6.625Y-4.2
X6.625Y-4.325
X6.625Y-4.45
X6.625Y-4.75
X6.625Y-4.8484
X6.7219Y-3.25
X6.7219Y-3.55
X6.725Y-3.075
X6.85Y-2.8
X6.95Y-2.95
X6.95Y-3.275
X6.9516Y-3.6
X6.975Y-4.85
X6.975Y-5.25
X7.025Y-4.075
X7.025Y-4.2
X7.025Y-4.325
X7.025Y-4.45
X7.0484Y-2.95
X7.0484Y-3.275
X7.05Y-3.6
T2
X4.45Y-2.35
X4.45Y-2.55
X4.45Y-3.8
X4.55Y-2.35
X4.55Y-2.55
X4.55Y-3.8
T3
X4.05Y-2.8
X4.05Y-2.9
X4.05Y-3.0
X4.05Y-3.1
X4.05Y-3.2
X4.05Y-3.3
X4.05Y-3.4
X4.05Y-3.5
X4.15Y-2.8
X4.15Y-2.9
X4.15Y-3.0
X4.15Y-3.1
X4.15Y-3.2
X4.15Y-3.3
X4.15Y-3.4
X4.15Y-3.5
X4.15Y-5.05
X4.15Y-5.15
X4.6Y-5.1
X4.6984Y-5.1
X5.15Y-5.1
X5.2484Y-5.1
X5.575Y-2.425
X5.6734Y-2.425
X6.075Y-5.1
X6.1734Y-5.1
X6.425Y-2.425
X6.5234Y-2.425
X6.625Y-5.1
X6.7234Y-5.1
X7.3Y-2.6031
X7.3Y-2.7016
X7.3Y-2.8
X7.3Y-3.4031
X7.3Y-3.5016
X7.3Y-3.6
X7.3Y-4.2031
X7.3Y-4.3016
X7.3Y-4.4
T4
X3.775Y-2.2
X3.775Y-5.275
X7.35Y-2.2
X7.35Y-5.275
T0
M30
