G04 #@! TF.GenerationSoftware,KiCad,Pcbnew,(5.1.10)-1*
G04 #@! TF.CreationDate,2021-07-20T07:44:14+09:00*
G04 #@! TF.ProjectId,PT2399_Echo,50543233-3939-45f4-9563-686f2e6b6963,Ver. 1.0*
G04 #@! TF.SameCoordinates,Original*
G04 #@! TF.FileFunction,Soldermask,Bot*
G04 #@! TF.FilePolarity,Negative*
%FSLAX46Y46*%
G04 Gerber Fmt 4.6, Leading zero omitted, Abs format (unit mm)*
G04 Created by KiCad (PCBNEW (5.1.10)-1) date 2021-07-20 07:44:14*
%MOMM*%
%LPD*%
G01*
G04 APERTURE LIST*
%ADD10C,1.600000*%
%ADD11R,1.600000X1.600000*%
%ADD12O,1.600000X1.600000*%
%ADD13C,3.200000*%
%ADD14O,2.400000X1.600000*%
%ADD15R,2.400000X1.600000*%
%ADD16C,1.800000*%
%ADD17O,1.700000X2.000000*%
%ADD18O,1.700000X1.700000*%
%ADD19R,1.700000X1.700000*%
%ADD20C,1.700000*%
%ADD21R,1.800000X1.800000*%
G04 APERTURE END LIST*
D10*
G04 #@! TO.C,C8*
X141645000Y-71120000D03*
D11*
X144145000Y-71120000D03*
G04 #@! TD*
D12*
G04 #@! TO.C,R4*
X178435000Y-103505000D03*
D10*
X168275000Y-103505000D03*
G04 #@! TD*
G04 #@! TO.C,C23*
X141685000Y-93980000D03*
X146685000Y-93980000D03*
G04 #@! TD*
G04 #@! TO.C,C20*
X141685000Y-88900000D03*
X146685000Y-88900000D03*
G04 #@! TD*
G04 #@! TO.C,C11*
X141685000Y-78740000D03*
X146685000Y-78740000D03*
G04 #@! TD*
D13*
G04 #@! TO.C,H4*
X186690000Y-133985000D03*
G04 #@! TD*
G04 #@! TO.C,H3*
X186690000Y-55880000D03*
G04 #@! TD*
G04 #@! TO.C,H2*
X95885000Y-133985000D03*
G04 #@! TD*
G04 #@! TO.C,H1*
X95885000Y-55880000D03*
G04 #@! TD*
D10*
G04 #@! TO.C,C24*
X123865000Y-93980000D03*
X126365000Y-93980000D03*
G04 #@! TD*
G04 #@! TO.C,C22*
X123865000Y-91440000D03*
X126365000Y-91440000D03*
G04 #@! TD*
G04 #@! TO.C,C9*
X126365000Y-81200000D03*
X126365000Y-76200000D03*
G04 #@! TD*
G04 #@! TO.C,C17*
X101640000Y-113030000D03*
D11*
X104140000Y-113030000D03*
G04 #@! TD*
D10*
G04 #@! TO.C,C16*
X109260000Y-113030000D03*
D11*
X111760000Y-113030000D03*
G04 #@! TD*
D10*
G04 #@! TO.C,C15*
X179030000Y-83185000D03*
D11*
X176530000Y-83185000D03*
G04 #@! TD*
D10*
G04 #@! TO.C,C14*
X179070000Y-91440000D03*
D11*
X176570000Y-91440000D03*
G04 #@! TD*
D10*
G04 #@! TO.C,C12*
X114300000Y-73620000D03*
D11*
X114300000Y-71120000D03*
G04 #@! TD*
D10*
G04 #@! TO.C,C10*
X179030000Y-74930000D03*
D11*
X176530000Y-74930000D03*
G04 #@! TD*
D10*
G04 #@! TO.C,C7*
X114300000Y-88860000D03*
D11*
X114300000Y-86360000D03*
G04 #@! TD*
D10*
G04 #@! TO.C,C6*
X114300000Y-81240000D03*
D11*
X114300000Y-78740000D03*
G04 #@! TD*
D10*
G04 #@! TO.C,C3*
X154305000Y-123150000D03*
D11*
X154305000Y-120650000D03*
G04 #@! TD*
D10*
G04 #@! TO.C,C1*
X168275000Y-123150000D03*
D11*
X168275000Y-120650000D03*
G04 #@! TD*
D10*
G04 #@! TO.C,C21*
X170735000Y-90170000D03*
X165735000Y-90170000D03*
G04 #@! TD*
G04 #@! TO.C,C4*
X129620000Y-122555000D03*
X134620000Y-122555000D03*
G04 #@! TD*
G04 #@! TO.C,C2*
X115650000Y-122555000D03*
X120650000Y-122555000D03*
G04 #@! TD*
G04 #@! TO.C,C28*
X124420000Y-100965000D03*
X121920000Y-100965000D03*
G04 #@! TD*
G04 #@! TO.C,C27*
X165060000Y-101600000D03*
X162560000Y-101600000D03*
G04 #@! TD*
G04 #@! TO.C,C26*
X119340000Y-114935000D03*
X116840000Y-114935000D03*
G04 #@! TD*
G04 #@! TO.C,C25*
X159980000Y-115570000D03*
X157480000Y-115570000D03*
G04 #@! TD*
G04 #@! TO.C,C19*
X170735000Y-82550000D03*
X165735000Y-82550000D03*
G04 #@! TD*
G04 #@! TO.C,C18*
X141685000Y-83820000D03*
X146685000Y-83820000D03*
G04 #@! TD*
D14*
G04 #@! TO.C,U3*
X137160000Y-76200000D03*
X129540000Y-93980000D03*
X137160000Y-78740000D03*
X129540000Y-91440000D03*
X137160000Y-81280000D03*
X129540000Y-88900000D03*
X137160000Y-83820000D03*
X129540000Y-86360000D03*
X137160000Y-86360000D03*
X129540000Y-83820000D03*
X137160000Y-88900000D03*
X129540000Y-81280000D03*
X137160000Y-91440000D03*
X129540000Y-78740000D03*
X137160000Y-93980000D03*
D15*
X129540000Y-76200000D03*
G04 #@! TD*
D14*
G04 #@! TO.C,U2*
X116840000Y-111760000D03*
X124460000Y-104140000D03*
X116840000Y-109220000D03*
X124460000Y-106680000D03*
X116840000Y-106680000D03*
X124460000Y-109220000D03*
X116840000Y-104140000D03*
D15*
X124460000Y-111760000D03*
G04 #@! TD*
D14*
G04 #@! TO.C,U1*
X157480000Y-112395000D03*
X165100000Y-104775000D03*
X157480000Y-109855000D03*
X165100000Y-107315000D03*
X157480000Y-107315000D03*
X165100000Y-109855000D03*
X157480000Y-104775000D03*
D15*
X165100000Y-112395000D03*
G04 #@! TD*
D16*
G04 #@! TO.C,RV3*
X185420000Y-71120000D03*
X185420000Y-68620000D03*
X185420000Y-66120000D03*
G04 #@! TD*
G04 #@! TO.C,RV2*
X185420000Y-91440000D03*
X185420000Y-88940000D03*
X185420000Y-86440000D03*
G04 #@! TD*
G04 #@! TO.C,RV1*
X185420000Y-111760000D03*
X185420000Y-109260000D03*
X185420000Y-106760000D03*
G04 #@! TD*
D12*
G04 #@! TO.C,R28*
X109855000Y-96520000D03*
D10*
X99695000Y-96520000D03*
G04 #@! TD*
D12*
G04 #@! TO.C,R27*
X109855000Y-63500000D03*
D10*
X99695000Y-63500000D03*
G04 #@! TD*
D12*
G04 #@! TO.C,R26*
X109855000Y-60325000D03*
D10*
X99695000Y-60325000D03*
G04 #@! TD*
D12*
G04 #@! TO.C,R25*
X123190000Y-78740000D03*
D10*
X123190000Y-88900000D03*
G04 #@! TD*
D12*
G04 #@! TO.C,R24*
X151130000Y-90170000D03*
D10*
X161290000Y-90170000D03*
G04 #@! TD*
D12*
G04 #@! TO.C,R23*
X151130000Y-86995000D03*
D10*
X161290000Y-86995000D03*
G04 #@! TD*
D12*
G04 #@! TO.C,R22*
X151130000Y-83820000D03*
D10*
X161290000Y-83820000D03*
G04 #@! TD*
D12*
G04 #@! TO.C,R21*
X151130000Y-80645000D03*
D10*
X161290000Y-80645000D03*
G04 #@! TD*
D12*
G04 #@! TO.C,R20*
X113030000Y-107315000D03*
D10*
X102870000Y-107315000D03*
G04 #@! TD*
D12*
G04 #@! TO.C,R19*
X151130000Y-77470000D03*
D10*
X161290000Y-77470000D03*
G04 #@! TD*
D12*
G04 #@! TO.C,R18*
X102870000Y-104140000D03*
D10*
X113030000Y-104140000D03*
G04 #@! TD*
D12*
G04 #@! TO.C,R17*
X163830000Y-71120000D03*
D10*
X173990000Y-71120000D03*
G04 #@! TD*
D12*
G04 #@! TO.C,R16*
X151130000Y-74295000D03*
D10*
X161290000Y-74295000D03*
G04 #@! TD*
D12*
G04 #@! TO.C,R15*
X151130000Y-71120000D03*
D10*
X161290000Y-71120000D03*
G04 #@! TD*
D12*
G04 #@! TO.C,R14*
X137795000Y-103505000D03*
D10*
X127635000Y-103505000D03*
G04 #@! TD*
D12*
G04 #@! TO.C,R13*
X144145000Y-106680000D03*
D10*
X154305000Y-106680000D03*
G04 #@! TD*
D12*
G04 #@! TO.C,R12*
X144145000Y-103505000D03*
D10*
X154305000Y-103505000D03*
G04 #@! TD*
D12*
G04 #@! TO.C,R11*
X147955000Y-123190000D03*
D10*
X147955000Y-133350000D03*
G04 #@! TD*
D12*
G04 #@! TO.C,R10*
X137795000Y-106680000D03*
D10*
X127635000Y-106680000D03*
G04 #@! TD*
D12*
G04 #@! TO.C,R9*
X144145000Y-109855000D03*
D10*
X154305000Y-109855000D03*
G04 #@! TD*
D12*
G04 #@! TO.C,R8*
X137795000Y-113030000D03*
D10*
X127635000Y-113030000D03*
G04 #@! TD*
D12*
G04 #@! TO.C,R7*
X137795000Y-109855000D03*
D10*
X127635000Y-109855000D03*
G04 #@! TD*
D12*
G04 #@! TO.C,R6*
X144145000Y-113030000D03*
D10*
X154305000Y-113030000D03*
G04 #@! TD*
D12*
G04 #@! TO.C,R5*
X177165000Y-123190000D03*
D10*
X177165000Y-133350000D03*
G04 #@! TD*
D12*
G04 #@! TO.C,R3*
X178435000Y-106680000D03*
D10*
X168275000Y-106680000D03*
G04 #@! TD*
D12*
G04 #@! TO.C,R2*
X178435000Y-113030000D03*
D10*
X168275000Y-113030000D03*
G04 #@! TD*
D12*
G04 #@! TO.C,R1*
X178435000Y-109855000D03*
D10*
X168275000Y-109855000D03*
G04 #@! TD*
D17*
G04 #@! TO.C,J8*
X165695000Y-61595000D03*
G36*
G01*
X162345000Y-62345000D02*
X162345000Y-60845000D01*
G75*
G02*
X162595000Y-60595000I250000J0D01*
G01*
X163795000Y-60595000D01*
G75*
G02*
X164045000Y-60845000I0J-250000D01*
G01*
X164045000Y-62345000D01*
G75*
G02*
X163795000Y-62595000I-250000J0D01*
G01*
X162595000Y-62595000D01*
G75*
G02*
X162345000Y-62345000I0J250000D01*
G01*
G37*
G04 #@! TD*
G04 #@! TO.C,J7*
X144105000Y-61595000D03*
G36*
G01*
X140755000Y-62345000D02*
X140755000Y-60845000D01*
G75*
G02*
X141005000Y-60595000I250000J0D01*
G01*
X142205000Y-60595000D01*
G75*
G02*
X142455000Y-60845000I0J-250000D01*
G01*
X142455000Y-62345000D01*
G75*
G02*
X142205000Y-62595000I-250000J0D01*
G01*
X141005000Y-62595000D01*
G75*
G02*
X140755000Y-62345000I0J250000D01*
G01*
G37*
G04 #@! TD*
D18*
G04 #@! TO.C,J6*
X105410000Y-130810000D03*
D19*
X105410000Y-128270000D03*
G04 #@! TD*
D17*
G04 #@! TO.C,J5*
X133310000Y-129540000D03*
G36*
G01*
X129960000Y-130290000D02*
X129960000Y-128790000D01*
G75*
G02*
X130210000Y-128540000I250000J0D01*
G01*
X131410000Y-128540000D01*
G75*
G02*
X131660000Y-128790000I0J-250000D01*
G01*
X131660000Y-130290000D01*
G75*
G02*
X131410000Y-130540000I-250000J0D01*
G01*
X130210000Y-130540000D01*
G75*
G02*
X129960000Y-130290000I0J250000D01*
G01*
G37*
G04 #@! TD*
G04 #@! TO.C,J4*
X156805000Y-129540000D03*
G36*
G01*
X153455000Y-130290000D02*
X153455000Y-128790000D01*
G75*
G02*
X153705000Y-128540000I250000J0D01*
G01*
X154905000Y-128540000D01*
G75*
G02*
X155155000Y-128790000I0J-250000D01*
G01*
X155155000Y-130290000D01*
G75*
G02*
X154905000Y-130540000I-250000J0D01*
G01*
X153705000Y-130540000D01*
G75*
G02*
X153455000Y-130290000I0J250000D01*
G01*
G37*
G04 #@! TD*
G04 #@! TO.C,J3*
X119340000Y-129540000D03*
G36*
G01*
X115990000Y-130290000D02*
X115990000Y-128790000D01*
G75*
G02*
X116240000Y-128540000I250000J0D01*
G01*
X117440000Y-128540000D01*
G75*
G02*
X117690000Y-128790000I0J-250000D01*
G01*
X117690000Y-130290000D01*
G75*
G02*
X117440000Y-130540000I-250000J0D01*
G01*
X116240000Y-130540000D01*
G75*
G02*
X115990000Y-130290000I0J250000D01*
G01*
G37*
G04 #@! TD*
D20*
G04 #@! TO.C,J2*
X102870000Y-71120000D03*
X102870000Y-73660000D03*
X102870000Y-76200000D03*
X102870000Y-78740000D03*
X102870000Y-81280000D03*
X102870000Y-83820000D03*
X102870000Y-86360000D03*
X102870000Y-88900000D03*
X105410000Y-71120000D03*
X105410000Y-73660000D03*
X105410000Y-76200000D03*
X105410000Y-78740000D03*
X105410000Y-81280000D03*
X105410000Y-83820000D03*
X105410000Y-86360000D03*
G36*
G01*
X106260000Y-88300000D02*
X106260000Y-89500000D01*
G75*
G02*
X106010000Y-89750000I-250000J0D01*
G01*
X104810000Y-89750000D01*
G75*
G02*
X104560000Y-89500000I0J250000D01*
G01*
X104560000Y-88300000D01*
G75*
G02*
X104810000Y-88050000I250000J0D01*
G01*
X106010000Y-88050000D01*
G75*
G02*
X106260000Y-88300000I0J-250000D01*
G01*
G37*
G04 #@! TD*
D17*
G04 #@! TO.C,J1*
X170775000Y-129540000D03*
G36*
G01*
X167425000Y-130290000D02*
X167425000Y-128790000D01*
G75*
G02*
X167675000Y-128540000I250000J0D01*
G01*
X168875000Y-128540000D01*
G75*
G02*
X169125000Y-128790000I0J-250000D01*
G01*
X169125000Y-130290000D01*
G75*
G02*
X168875000Y-130540000I-250000J0D01*
G01*
X167675000Y-130540000D01*
G75*
G02*
X167425000Y-130290000I0J250000D01*
G01*
G37*
G04 #@! TD*
D16*
G04 #@! TO.C,D3*
X113030000Y-96520000D03*
D21*
X115570000Y-96520000D03*
G04 #@! TD*
D16*
G04 #@! TO.C,D2*
X113030000Y-64770000D03*
D21*
X115570000Y-64770000D03*
G04 #@! TD*
D16*
G04 #@! TO.C,D1*
X113030000Y-59690000D03*
D21*
X115570000Y-59690000D03*
G04 #@! TD*
D10*
G04 #@! TO.C,C13*
X165815000Y-78105000D03*
X170815000Y-78105000D03*
G04 #@! TD*
G04 #@! TO.C,C5*
X123825000Y-68620000D03*
D11*
X123825000Y-71120000D03*
G04 #@! TD*
M02*
